<?xml version="1.0" encoding="utf-8"?>
<!-- Generator: Adobe Illustrator 25.4.1, SVG Export Plug-In . SVG Version: 6.00 Build 0)  -->
<svg version="1.1" id="Layer_1" xmlns="http://www.w3.org/2000/svg" xmlns:xlink="http://www.w3.org/1999/xlink" x="0px" y="0px"
	 viewBox="0 0 438 438" style="enable-background:new 0 0 438 438;" xml:space="preserve">
<style type="text/css">
	.st0{fill:#48AE7F;}
	.st1{fill:#B1D7B9;}
	.st2{fill:#C5E1C9;}
	.st3{fill:#235D52;}
</style>
<g>
	<path class="st0" d="M388.1,301c-10.7,34-33.4,59.4-60.2,81.4c-50.4,41.2-108.5,50.3-171.2,39.3C97,411.2,26.6,349.6,15.3,297
		c70.6,1.3,126.6,34.9,176.8,80.7c8.5,7.7,12.6,9,20.9,0.3c37.1-39,83.3-62.5,134.8-75.7C360.4,299,374.4,291.7,388.1,301z"/>
	<path class="st1" d="M388.1,301c-13.7-9.3-27.7-1.9-40.3,1.3C296.3,315.4,250,339,212.9,378c-8.3,8.7-12.4,7.5-20.9-0.3
		C141.9,331.9,85.8,298.4,15.3,297c-6.3-7.9-7.1-17.3-7.1-26.8c7.7-20.2,22.9-30.6,43.9-28.8c5.6,0.5,8.1-1.7,11-5.3
		c1.9-2.4,4.5-3.5,7.2-1.4c2.8,2.2,1.9,5,0,7.3c-2.4,2.7-4.4,5.3-1,8.5c3.2,3,6.4,1.5,8.8-0.9c4.2-4.2,11.3-1.3,14.9-6.4
		c29.9,28.1,57.5,58.4,85.6,88.2c13.1,13.8,27.9,14.2,41.2-0.4c16.9-18.7,32.6-38.4,48.9-57.6c2.9,4.9,4.6,5.6,11.3,2.6
		c12.7-5.7,23.6-21.1,39.9-13c9.9,4.9,20.7,6.3,29,2.7c19.7-8.6,35.1-0.7,51.2,8C396.5,282.9,397,294,388.1,301z"/>
	<path class="st2" d="M399.9,273.5c-16.1-8.7-31.6-16.6-51.2-8c-8.2,3.6-19.1,2.2-29-2.7c-16.3-8.1-27.3,7.3-39.9,13
		c-6.7,3-8.4,2.4-11.3-2.6c19.2-25.6,37.6-51.8,60.4-74.4c4.9-0.1,7.3-2.3,6.7-7.4c0,0-0.2,0-0.2,0c19.5,0.7,31.5-15.3,47.9-21.7
		c5-2,9.3-5.9,15.8-10.2C410.9,198.4,409.9,235.8,399.9,273.5z"/>
	<path class="st2" d="M92.9,243c-3.7,5.1-10.7,2.2-14.9,6.4c-2.4,2.4-5.6,4-8.8,0.9c-3.4-3.2-1.3-5.7,1-8.5c1.9-2.2,2.9-5,0-7.3
		c-2.7-2.1-5.3-1-7.2,1.4c-2.8,3.6-5.3,5.8-11,5.3c-21-1.9-36.2,8.6-43.9,28.8c-12.8-15-6.5-33.8-7.4-50.2
		c-0.8-15.5-0.4-32.1,3.1-48.3c2.4-11,6.6-13.8,16.5-13.2c7.2,0.4,14.7,1.3,21.1-3.4c-0.8,6.8-4.4,13.2-2.2,20.3
		c-1,10.8,6.2,17.3,12.6,24.1C65.5,214.1,79.2,228.6,92.9,243z"/>
	<path class="st3" d="M425.8,22.7c-16-14.6-44.1-14.4-59.5,2c-19.6,20.8-37.8,42.9-54.3,66.2c-29.3,33.8-58.5,67.5-87.8,101.3
		c-0.8,1.4-1.4,3-2.4,4.2c-28.1,35.5-33.8,35.5-62.4-0.3c-9.9-9.1-38.9-39.4-44-44.9c-25.6-27.3-50.6-25.8-73.7,3.9
		c-0.8,6.8-4.4,13.2-2.2,20.3c-1,10.8,6.2,17.3,12.6,24.1c13.6,14.5,27.3,29,40.9,43.5c29.9,28.1,57.5,58.4,85.6,88.2
		c13.1,13.8,27.9,14.2,41.2-0.4c16.9-18.7,32.6-38.4,48.9-57.6c19.2-25.6,37.6-51.8,60.4-74.4c2.2-2.5,4.5-4.9,6.7-7.4
		c0,0-0.2,0-0.2,0c4.2-9.1,11.3-15.9,17.5-23.5c15.7-19.3,33.1-37.4,44.8-59.7c14.2-6.3,19.8-20.6,28.7-31.7
		C442.3,56.7,441.6,37.1,425.8,22.7z"/>
	<path class="st2" d="M224.1,192.2c-0.8,1.4-1.4,3-2.4,4.2c-28.1,35.5-33.8,35.5-62.4-0.3C180.6,189.3,202.5,193.4,224.1,192.2z"/>
</g>
</svg>
